<svg width="17" height="20" viewBox="0 0 17 20" fill="none" xmlns="http://www.w3.org/2000/svg">
<path fill-rule="evenodd" clip-rule="evenodd" d="M8.49983 19.996C6.04169 20 3.94242 18.2303 2.20219 14.6909L2.06188 14.4C0.294555 10.6667 -0.336634 6.93333 0.168317 3.2C0.420792 2.13333 1.30446 1.33333 2.81931 0.8C4.33416 0.266667 6.22772 0 8.5 0C10.7723 0 12.6658 0.266667 14.1807 0.8C15.6955 1.33333 16.5792 2.13333 16.8317 3.2C17.3366 6.93333 16.7054 10.6667 14.9381 14.4C13.1708 18.1333 11.0248 20 8.5 20L8.49983 19.996ZM6.27273 13C5.84848 13.4444 5.42424 14.1111 5 15C5.07415 14.9612 5.15261 14.9178 5.2364 14.8715C5.87176 14.5204 6.81335 14 8.5 14C10.1867 14 11.1282 14.5204 11.7636 14.8715C11.8474 14.9178 11.9259 14.9612 12 15C11.5758 14.1111 11.1515 13.4444 10.7273 13C10.303 12.5556 9.45455 12 8.5 12C7.54545 12 6.69697 12.5556 6.27273 13ZM2.44061 7.19998C2.44061 7.19998 3.95546 9.19998 5.47032 8.39998C6.98517 7.59998 7.36388 5.59998 7.36388 5.59998C7.36388 5.59998 5.84903 5.59998 4.71289 5.99998C3.57675 6.39998 2.44061 7.19998 2.44061 7.19998ZM11.5297 8.39998C13.0445 9.19998 14.5594 7.19998 14.5594 7.19998C14.5594 7.19998 13.4232 6.39998 12.2871 5.99998C11.151 5.59998 9.63612 5.59998 9.63612 5.59998C9.63612 5.59998 10.0148 7.59998 11.5297 8.39998Z" fill="#C3CAD9"/>
</svg>
