<svg width="22" height="23" viewBox="0 0 22 23" fill="none" xmlns="http://www.w3.org/2000/svg">
<path fill-rule="evenodd" clip-rule="evenodd" d="M11 22.5C11 22.5 9 22.5 7.5 22C6 21.5 6 21 6 21V18.5C6 18.5 4.5 18.5 3 17.5C1.5 16.5 2.5 14.5 2.5 14.5C2.5 14.5 0.5 13.5 0.5 8C0.5 2.5 5.5 0 11 0C16.5 0 21.5 2.5 21.5 8C21.5 13.5 19.5 14.5 19.5 14.5C19.5 14.5 20.5 16.5 19 17.5C17.5 18.5 16 18.5 16 18.5V21C16 21 16 21.5 14.5 22C13 22.5 11 22.5 11 22.5ZM11.075 15L11.0625 15.0125L11.05 15V15.025L10.075 16C9.57501 16.5 9.57501 17.5 10.075 17.5C10.5286 17.5 10.9823 17.0884 11.0625 17.0121C11.1427 17.0884 11.5964 17.5 12.05 17.5C12.55 17.5 12.55 16.5 12.05 16L11.075 15.025V15ZM7 14C8.10457 14 9 13.1046 9 12C9 10.8954 8.10457 10 7 10C5.89543 10 5 10.8954 5 12C5 13.1046 5.89543 14 7 14ZM18 12C18 13.1046 17.1046 14 16 14C14.8954 14 14 13.1046 14 12C14 10.8954 14.8954 10 16 10C17.1046 10 18 10.8954 18 12Z" fill="#C3CAD9"/>
</svg>
