<svg width="23" height="22" viewBox="0 0 23 22" fill="none" xmlns="http://www.w3.org/2000/svg">
<path fill-rule="evenodd" clip-rule="evenodd" d="M0 22C0 22 0 18.5 2.5 17C5 15.5 8 15 10 14C12 13 13 11 12 10C11 9 9 9.5 8.5 10C8 10.5 7.5 12 6.5 12C5.5 12 5 10.5 5 10.5H6.5L6 10L7.5 9.5V8.5H8.5L7 8V9L6 8.5V9H5L5.5 9.5C5.5 9.5 4 10 3.5 9.5C3 9 3 8 4 7.5C5 7 7 6 7.5 5C8 4 8 4.5 9.5 3.5C11 2.5 12 0 12 0L13 3C13 3 14.5 4.5 17 4C19.5 3.5 22.5 1.5 22.5 1.5C22.5 1.5 21.5 4.5 20 5C18.5 5.5 17 5.5 17 5.5C17 5.5 18 6 18.5 6.5C19 7 22 6 22 6C22 6 19.5 8.5 18 7.5C16.5 6.5 16.5 7 16.5 7C16.5 7 18.5 8 19 9.5C19.5 11 19 12.5 19 12.5C19 12.5 18.5 10 17.5 9.5C16.5 9 18 14 18 15.5C18 17 16 20 16 20C16 20 16.5 17.5 16.5 17C16.5 16.5 16.5 15.5 16.5 15.5C16.5 15.5 16 19 15 20C14 21 13.5 21.5 13.5 21.5C13.5 21.5 14 21 14 20C14 19 13.5 18.5 13.5 18.5C13.5 18.5 12.5 21 10 21C7.5 21 6 20.5 3.5 21C1 21.5 0 22 0 22Z" fill="#C3CAD9"/>
</svg>
