<svg width="17" height="20" viewBox="0 0 17 20" fill="none" xmlns="http://www.w3.org/2000/svg">
<path fill-rule="evenodd" clip-rule="evenodd" d="M8.49983 19.996C6.04169 20 3.94242 18.2303 2.20219 14.6909L2.06188 14.4C0.294555 10.6667 -0.336634 6.93333 0.168317 3.2C0.420792 2.13333 1.30446 1.33333 2.81931 0.8C4.33416 0.266667 6.22772 0 8.5 0C10.7723 0 12.6658 0.266667 14.1807 0.8C15.6955 1.33333 16.5792 2.13333 16.8317 3.2C17.3366 6.93333 16.7054 10.6667 14.9381 14.4C13.1708 18.1333 11.0247 20 8.49998 20L8.49983 19.996ZM6.27273 14C5.84848 13.5556 5.42424 12.8889 5 12C5.07415 12.0388 5.15261 12.0822 5.2364 12.1285C5.87176 12.4796 6.81335 13 8.5 13C10.1867 13 11.1282 12.4796 11.7636 12.1285C11.8474 12.0822 11.9259 12.0388 12 12C11.5758 12.8889 11.1515 13.5556 10.7273 14C10.303 14.4444 9.45455 15 8.5 15C7.54545 15 6.69697 14.4444 6.27273 14ZM2.44061 7.19998C2.44061 7.19998 3.95546 9.19998 5.47032 8.39998C6.98517 7.59998 7.36388 5.59998 7.36388 5.59998C7.36388 5.59998 5.84903 5.59998 4.71289 5.99998C3.57675 6.39998 2.44061 7.19998 2.44061 7.19998ZM11.5297 8.39998C13.0445 9.19998 14.5594 7.19998 14.5594 7.19998C14.5594 7.19998 13.4232 6.39998 12.2871 5.99998C11.151 5.59998 9.63612 5.59998 9.63612 5.59998C9.63612 5.59998 10.0148 7.59998 11.5297 8.39998Z" fill="#C3CAD9"/>
</svg>
