<svg width="14" height="17" viewBox="0 0 14 17" fill="none" xmlns="http://www.w3.org/2000/svg">
<path fill-rule="evenodd" clip-rule="evenodd" d="M1 0C0.447715 0 0 0.447715 0 1C0 1.55228 0.447716 2 1 2H2.08648C2.25122 4.09915 2.86466 7.26148 5.00966 8.48826C2.83092 9.69771 2.21062 12.8873 2.04481 15H1C0.447715 15 0 15.4477 0 16C0 16.5523 0.447716 17 1 17H2H12H13C13.5523 17 14 16.5523 14 16C14 15.4477 13.5523 15 13 15H11.9552C11.7904 12.9008 11.177 9.73851 9.03201 8.51174C11.2107 7.30229 11.831 4.11268 11.9969 2H13C13.5523 2 14 1.55228 14 1C14 0.447715 13.5523 0 13 0H12.0417H2.04167H1Z" fill="#C3CAD9"/>
</svg>
