<svg width="20" height="16" viewBox="0 0 20 16" fill="none" xmlns="http://www.w3.org/2000/svg">
<path fill-rule="evenodd" clip-rule="evenodd" d="M1.13698 15.8185C0.729127 15.6146 0.418991 15.257 0.274795 14.8244L0.102633 14.3079C0.0346558 14.104 0 13.8906 0 13.6756V11C0 10.2714 0.79622 7.95042 1.22846 6.74411C1.38522 6.3066 1.22644 5.81763 0.839745 5.55983L0.4453 5.29687C0.167101 5.1114 0 4.79917 0 4.46482V4.0829C0 4.02773 0.00447703 3.97267 0.0160812 3.91873C0.0769336 3.6359 0.324899 2.6751 1 2C1.79961 1.20039 2 1 3 1H14L15 0H17V1H19V2H20V4.5H19V5L18 6H12L11.3825 7.85263C11.1334 8.59974 10.6625 9.25314 10.0325 9.72566C9.36228 10.2283 8.54715 10.5 7.70943 10.5H6.5L5.62634 14.4315C5.54383 14.8028 5.35615 15.1438 5.08719 15.4128C4.71212 15.7879 4.20201 16 3.67157 16H1.90587C1.63896 16 1.37571 15.9379 1.13698 15.8185ZM7.5 8.5C6.94772 8.5 6.5 8.05229 6.5 7.5V7L6.625 6.91667L7.38398 7.42265C7.45963 7.47309 7.54852 7.5 7.63944 7.5C8.00729 7.5 8.22669 7.09004 8.02265 6.78398L7.65385 6.23077L8 6H9.19098C9.63779 6 10 6.36221 10 6.80902C10 6.93461 9.97076 7.05848 9.91459 7.17082L9.64907 7.70186C9.55231 7.89539 9.39538 8.05231 9.20186 8.14907L8.71115 8.39443C8.57229 8.46385 8.41918 8.5 8.26393 8.5H7.5Z" fill="#C3CAD9"/>
</svg>
